<mxfile host="app.diagrams.net" modified="2024-03-01T11:52:51.372Z" agent="Mozilla/5.0 (Macintosh; Intel Mac OS X 10_15_7) AppleWebKit/537.36 (KHTML, like Gecko) Chrome/122.0.0.0 Safari/537.36" etag="4AvmZg3GFwW9lnsXWunB" version="24.0.0" type="device">
  <diagram name="PÃ¡gina-1" id="AygReyjqmK6FS0JeAhS7">
    <mxGraphModel dx="1158" dy="833" grid="1" gridSize="10" guides="1" tooltips="1" connect="1" arrows="1" fold="1" page="1" pageScale="1" pageWidth="827" pageHeight="1169" math="0" shadow="0">
      <root>
        <mxCell id="0" />
        <mxCell id="1" parent="0" />
        <mxCell id="n9hqviR6GmWmcefuebef-7" value="" style="edgeStyle=orthogonalEdgeStyle;rounded=0;orthogonalLoop=1;jettySize=auto;html=1;" edge="1" parent="1" source="n9hqviR6GmWmcefuebef-1" target="n9hqviR6GmWmcefuebef-6">
          <mxGeometry relative="1" as="geometry" />
        </mxCell>
        <mxCell id="n9hqviR6GmWmcefuebef-16" style="edgeStyle=orthogonalEdgeStyle;rounded=0;orthogonalLoop=1;jettySize=auto;html=1;" edge="1" parent="1" source="n9hqviR6GmWmcefuebef-1" target="n9hqviR6GmWmcefuebef-15">
          <mxGeometry relative="1" as="geometry" />
        </mxCell>
        <mxCell id="n9hqviR6GmWmcefuebef-20" style="edgeStyle=orthogonalEdgeStyle;rounded=0;orthogonalLoop=1;jettySize=auto;html=1;entryX=0.5;entryY=0;entryDx=0;entryDy=0;" edge="1" parent="1" source="n9hqviR6GmWmcefuebef-1" target="n9hqviR6GmWmcefuebef-19">
          <mxGeometry relative="1" as="geometry" />
        </mxCell>
        <mxCell id="n9hqviR6GmWmcefuebef-1" value="&lt;font style=&quot;font-size: 17px;&quot;&gt;system.c&lt;/font&gt;" style="rounded=0;whiteSpace=wrap;html=1;" vertex="1" parent="1">
          <mxGeometry x="230" y="90" width="720" height="120" as="geometry" />
        </mxCell>
        <mxCell id="n9hqviR6GmWmcefuebef-2" value="&lt;font style=&quot;font-size: 22px;&quot;&gt;FSM&lt;/font&gt;" style="text;html=1;align=center;verticalAlign=middle;resizable=0;points=[];autosize=1;strokeColor=none;fillColor=none;" vertex="1" parent="1">
          <mxGeometry x="235" y="95" width="70" height="40" as="geometry" />
        </mxCell>
        <mxCell id="n9hqviR6GmWmcefuebef-9" value="" style="edgeStyle=orthogonalEdgeStyle;rounded=0;orthogonalLoop=1;jettySize=auto;html=1;" edge="1" parent="1" source="n9hqviR6GmWmcefuebef-6" target="n9hqviR6GmWmcefuebef-8">
          <mxGeometry relative="1" as="geometry" />
        </mxCell>
        <mxCell id="n9hqviR6GmWmcefuebef-11" value="" style="edgeStyle=orthogonalEdgeStyle;rounded=0;orthogonalLoop=1;jettySize=auto;html=1;" edge="1" parent="1" source="n9hqviR6GmWmcefuebef-6" target="n9hqviR6GmWmcefuebef-8">
          <mxGeometry relative="1" as="geometry" />
        </mxCell>
        <mxCell id="n9hqviR6GmWmcefuebef-13" style="edgeStyle=orthogonalEdgeStyle;rounded=0;orthogonalLoop=1;jettySize=auto;html=1;entryX=0.5;entryY=0;entryDx=0;entryDy=0;" edge="1" parent="1" source="n9hqviR6GmWmcefuebef-6" target="n9hqviR6GmWmcefuebef-12">
          <mxGeometry relative="1" as="geometry" />
        </mxCell>
        <mxCell id="n9hqviR6GmWmcefuebef-6" value="&lt;font style=&quot;font-size: 17px;&quot;&gt;sensors.c&lt;/font&gt;" style="rounded=0;whiteSpace=wrap;html=1;" vertex="1" parent="1">
          <mxGeometry x="490" y="330" width="200" height="70" as="geometry" />
        </mxCell>
        <mxCell id="n9hqviR6GmWmcefuebef-8" value="&lt;font style=&quot;font-size: 15px;&quot;&gt;MPU6050&lt;/font&gt;" style="rounded=0;whiteSpace=wrap;html=1;" vertex="1" parent="1">
          <mxGeometry x="380" y="450" width="200" height="70" as="geometry" />
        </mxCell>
        <mxCell id="n9hqviR6GmWmcefuebef-12" value="&lt;font style=&quot;font-size: 17px;&quot;&gt;Ultrasonidos&lt;/font&gt;" style="rounded=0;whiteSpace=wrap;html=1;" vertex="1" parent="1">
          <mxGeometry x="600" y="450" width="200" height="70" as="geometry" />
        </mxCell>
        <mxCell id="n9hqviR6GmWmcefuebef-18" value="" style="edgeStyle=orthogonalEdgeStyle;rounded=0;orthogonalLoop=1;jettySize=auto;html=1;" edge="1" parent="1" source="n9hqviR6GmWmcefuebef-15" target="n9hqviR6GmWmcefuebef-17">
          <mxGeometry relative="1" as="geometry" />
        </mxCell>
        <mxCell id="n9hqviR6GmWmcefuebef-15" value="&lt;span style=&quot;font-size: 17px;&quot;&gt;app.c&lt;/span&gt;" style="rounded=0;whiteSpace=wrap;html=1;" vertex="1" parent="1">
          <mxGeometry x="180" y="330" width="200" height="70" as="geometry" />
        </mxCell>
        <mxCell id="n9hqviR6GmWmcefuebef-17" value="&lt;span style=&quot;font-size: 17px;&quot;&gt;WIFI module&lt;/span&gt;" style="rounded=0;whiteSpace=wrap;html=1;" vertex="1" parent="1">
          <mxGeometry x="120" y="450" width="200" height="70" as="geometry" />
        </mxCell>
        <mxCell id="n9hqviR6GmWmcefuebef-21" style="edgeStyle=orthogonalEdgeStyle;rounded=0;orthogonalLoop=1;jettySize=auto;html=1;entryX=0.5;entryY=0;entryDx=0;entryDy=0;" edge="1" parent="1" source="n9hqviR6GmWmcefuebef-19" target="n9hqviR6GmWmcefuebef-22">
          <mxGeometry relative="1" as="geometry">
            <mxPoint x="900" y="450" as="targetPoint" />
          </mxGeometry>
        </mxCell>
        <mxCell id="n9hqviR6GmWmcefuebef-19" value="&lt;font style=&quot;font-size: 17px;&quot;&gt;pid.c&lt;/font&gt;" style="rounded=0;whiteSpace=wrap;html=1;" vertex="1" parent="1">
          <mxGeometry x="800" y="330" width="200" height="70" as="geometry" />
        </mxCell>
        <mxCell id="n9hqviR6GmWmcefuebef-22" value="&lt;font style=&quot;font-size: 17px;&quot;&gt;Motores&lt;/font&gt;" style="rounded=0;whiteSpace=wrap;html=1;" vertex="1" parent="1">
          <mxGeometry x="860" y="450" width="200" height="70" as="geometry" />
        </mxCell>
      </root>
    </mxGraphModel>
  </diagram>
</mxfile>
